<?xml version="1.0" encoding="utf-8"?>
<!-- Generator: Adobe Illustrator 25.2.3, SVG Export Plug-In . SVG Version: 6.00 Build 0)  -->
<svg version="1.1" id="Lager_1" xmlns="http://www.w3.org/2000/svg" xmlns:xlink="http://www.w3.org/1999/xlink" x="0px" y="0px"
	 viewBox="0 0 80 80" style="enable-background:new 0 0 80 80;" xml:space="preserve">
<style type="text/css">
	.st0{fill:#F4F8FD;}
	.st1{fill:#43B4E7;}
</style>
<g id="icn" transform="translate(-871 -6275)">
	<circle id="bg" class="st0" cx="911" cy="6315" r="40"/>
	<path id="quotation-mark" class="st1" d="M896.6,6328.8c-0.5,0.3-1.1,0.3-1.6-0.1l-0.9-1c-0.3-0.5-0.1-1.2,0.4-1.6
		c1.5-1.2,2.6-2.2,3.3-2.9c1.2-1.2,2.3-2.6,3-4.2c0.2-0.3-0.2-0.5-0.4-0.6c-5-1.6-7.5-4.4-7.5-8.4c-0.1-2.2,0.8-4.3,2.4-5.8
		c1.7-1.5,3.9-2.3,6.1-2.2c2.3,0,4.4,1.1,5.8,2.9c1.5,1.6,2.4,3.7,2.5,5.9C909.8,6317,905.4,6323,896.6,6328.8z M915.8,6328.8
		c-0.5,0.3-1.1,0.3-1.6-0.1l-0.9-1c-0.3-0.5-0.1-1.2,0.4-1.6c1.5-1.2,2.6-2.2,3.3-2.9c1.2-1.2,2.3-2.6,3-4.2
		c0.2-0.3-0.2-0.5-0.4-0.6c-5-1.6-7.5-4.4-7.5-8.4c-0.1-2.2,0.8-4.3,2.4-5.8c1.7-1.5,3.9-2.3,6.1-2.2c2.3,0,4.4,1.1,5.8,2.9
		c1.5,1.6,2.4,3.7,2.5,5.9C929,6317,924.6,6323,915.8,6328.8z"/>
</g>
</svg>
