<?xml version="1.0" encoding="utf-8"?>
<!-- Generator: Adobe Illustrator 25.2.0, SVG Export Plug-In . SVG Version: 6.00 Build 0)  -->
<svg version="1.1" id="Lager_1" xmlns="http://www.w3.org/2000/svg" xmlns:xlink="http://www.w3.org/1999/xlink" x="0px" y="0px"
	 viewBox="0 0 208 255" style="enable-background:new 0 0 208 255;" xml:space="preserve">
<style type="text/css">
	.st0{display:none;}
	.st1{display:inline;fill:none;}
	.st2{display:inline;}
	.st3{fill:none;}
	.st4{fill:none;stroke:#FACE55;stroke-width:80;stroke-miterlimit:10;}
	.st5{fill:#37DEF5;}
	.st6{fill-rule:evenodd;clip-rule:evenodd;fill:url(#SVGID_1_);}
	.st7{fill-rule:evenodd;clip-rule:evenodd;fill:url(#SVGID_2_);}
	.st8{fill-rule:evenodd;clip-rule:evenodd;fill:url(#SVGID_3_);}
	.st9{fill-rule:evenodd;clip-rule:evenodd;fill:url(#SVGID_4_);}
	.st10{fill-rule:evenodd;clip-rule:evenodd;fill:url(#SVGID_5_);}
	.st11{fill-rule:evenodd;clip-rule:evenodd;fill:url(#SVGID_6_);}
	.st12{fill-rule:evenodd;clip-rule:evenodd;fill:url(#SVGID_7_);}
	.st13{fill-rule:evenodd;clip-rule:evenodd;fill:url(#SVGID_8_);}
	.st14{fill-rule:evenodd;clip-rule:evenodd;fill:url(#SVGID_9_);}
	.st15{fill-rule:evenodd;clip-rule:evenodd;fill:url(#SVGID_10_);}
	.st16{fill-rule:evenodd;clip-rule:evenodd;fill:url(#SVGID_11_);}
	.st17{fill-rule:evenodd;clip-rule:evenodd;fill:url(#SVGID_12_);}
	.st18{fill-rule:evenodd;clip-rule:evenodd;fill:url(#SVGID_13_);}
	.st19{fill-rule:evenodd;clip-rule:evenodd;fill:url(#SVGID_14_);}
	.st20{fill-rule:evenodd;clip-rule:evenodd;fill:url(#SVGID_15_);}
	.st21{fill-rule:evenodd;clip-rule:evenodd;fill:url(#SVGID_16_);}
	.st22{fill-rule:evenodd;clip-rule:evenodd;fill:url(#SVGID_17_);}
	.st23{fill-rule:evenodd;clip-rule:evenodd;fill:url(#SVGID_18_);}
	.st24{fill-rule:evenodd;clip-rule:evenodd;fill:url(#SVGID_19_);}
	.st25{fill-rule:evenodd;clip-rule:evenodd;fill:url(#SVGID_20_);}
	.st26{fill-rule:evenodd;clip-rule:evenodd;fill:url(#SVGID_21_);}
	.st27{fill-rule:evenodd;clip-rule:evenodd;fill:url(#SVGID_22_);}
	.st28{fill-rule:evenodd;clip-rule:evenodd;fill:url(#SVGID_23_);}
	.st29{fill-rule:evenodd;clip-rule:evenodd;fill:url(#SVGID_24_);}
	.st30{fill-rule:evenodd;clip-rule:evenodd;fill:url(#SVGID_25_);}
	.st31{fill-rule:evenodd;clip-rule:evenodd;fill:url(#SVGID_26_);}
	.st32{fill-rule:evenodd;clip-rule:evenodd;fill:url(#SVGID_27_);}
	.st33{fill-rule:evenodd;clip-rule:evenodd;fill:url(#SVGID_28_);}
</style>
<g class="st0">
	<rect y="0" class="st1" width="208" height="255"/>
	<g id="Hero_Shape" transform="translate(-1479)">
		<g id="Group_9104" class="st2">
			<g id="Oval" transform="translate(1523 -198)">
				<circle class="st3" cx="224.5" cy="224.5" r="224.5"/>
				<circle class="st4" cx="224.5" cy="224.5" r="184.5"/>
			</g>
			<g id="Polygon" transform="translate(1556 161)">
				<path class="st3" d="M20.5,0l17.8,10.2v20.5L20.5,41L2.7,30.8V10.2L20.5,0z"/>
				<path class="st5" d="M20.5,0L2.7,10.2v20.5L20.5,41l17.8-10.2V10.2L20.5,0 M20.5-6c1,0,2.1,0.3,3,0.8L41.3,5.1
					c1.9,1.1,3,3.1,3,5.2v20.5c0,2.1-1.1,4.1-3,5.2L23.5,46.2c-0.9,0.5-2,0.8-3,0.8s-2.1-0.3-3-0.8L-0.3,35.9c-1.9-1.1-3-3.1-3-5.2
					V10.2c0-2.1,1.1-4.1,3-5.2L17.5-5.2C18.4-5.7,19.5-6,20.5-6z"/>
			</g>
		</g>
	</g>
</g>
<g>
	<g>
		
			<radialGradient id="SVGID_1_" cx="219.2159" cy="140.0136" r="128.116" gradientTransform="matrix(-4.445259e-02 0.999 -0.999 -4.445259e-02 356.8465 -225.2885)" gradientUnits="userSpaceOnUse">
			<stop  offset="0" style="stop-color:#FFFFFF"/>
			<stop  offset="0.5" style="stop-color:#F8B12D"/>
			<stop  offset="1" style="stop-color:#C31F22"/>
		</radialGradient>
		<path class="st6" d="M228.1,99.8c3.2-19.4-6.3-49.1-2.1-71.6c-4.6,15.4-6.8,26.8-8.1,35.6C217.2,72.1,223.3,86.6,228.1,99.8
			L228.1,99.8z"/>
		
			<radialGradient id="SVGID_2_" cx="333.0968" cy="226.5401" r="96.8537" gradientTransform="matrix(-4.445259e-02 0.999 -0.999 -4.445259e-02 356.8465 -225.2885)" gradientUnits="userSpaceOnUse">
			<stop  offset="0" style="stop-color:#FFFFFF"/>
			<stop  offset="0.5" style="stop-color:#F8B12D"/>
			<stop  offset="1" style="stop-color:#C31F22"/>
		</radialGradient>
		<path class="st7" d="M145.1,104.7c16.1,0,31.2,4.7,44.2,9.9c14.3,2.8,24-10.1,26.2-30.9C209.4,116,162.7,77.9,145.1,104.7
			L145.1,104.7z"/>
		
			<radialGradient id="SVGID_3_" cx="331.2359" cy="83.4448" r="96.7693" gradientTransform="matrix(-4.445259e-02 0.999 -0.999 -4.445259e-02 356.8465 -225.2885)" gradientUnits="userSpaceOnUse">
			<stop  offset="0" style="stop-color:#FFFFFF"/>
			<stop  offset="0.5" style="stop-color:#F8B12D"/>
			<stop  offset="1" style="stop-color:#C31F22"/>
		</radialGradient>
		<path class="st8" d="M215.5,83.7c-2.2,20.8-11.9,33.7-26.2,30.9c21,8.4,36.7,18.1,42.4,12.2c8.5-8.8-15.3-47.1-13.7-63
			C216.8,72.7,216.5,78.9,215.5,83.7L215.5,83.7z"/>
		
			<radialGradient id="SVGID_4_" cx="331.2364" cy="68.5583" r="97.2218" gradientTransform="matrix(-4.445259e-02 0.999 -0.999 -4.445259e-02 356.8465 -225.2885)" gradientUnits="userSpaceOnUse">
			<stop  offset="0" style="stop-color:#FFFFFF"/>
			<stop  offset="0.5" style="stop-color:#F8B12D"/>
			<stop  offset="1" style="stop-color:#C31F22"/>
		</radialGradient>
		<path class="st9" d="M215.5,83.7c-2.2,20.8-11.9,33.7-26.2,30.9c13.5,3.6,27.5,5.5,34.2-3.3c2.4-3.2,3.8-7.1,4.6-11.6
			c-4.8-13.2-11-27.7-10.1-36C216.8,72.7,216.5,78.9,215.5,83.7L215.5,83.7z"/>
		
			<radialGradient id="SVGID_5_" cx="315.5119" cy="106.5183" r="80.6664" gradientTransform="matrix(-4.445259e-02 0.999 -0.999 -4.445259e-02 356.8465 -225.2885)" gradientUnits="userSpaceOnUse">
			<stop  offset="0" style="stop-color:#FFFFFF"/>
			<stop  offset="0.5" style="stop-color:#F8B12D"/>
			<stop  offset="1" style="stop-color:#C31F22"/>
		</radialGradient>
		<path class="st10" d="M231.8,126.8c7.9-8.2-12.1-41.7-13.7-59.3c0.3,17.7,20,51.8,11.8,59.7c-0.7,0.7-1.6,1.2-2.5,1.4
			C229.2,128.5,230.6,127.9,231.8,126.8L231.8,126.8z"/>
		
			<radialGradient id="SVGID_6_" cx="250.0582" cy="141.1301" r="73.9672" gradientTransform="matrix(-4.445259e-02 0.999 -0.999 -4.445259e-02 356.8465 -225.2885)" gradientUnits="userSpaceOnUse">
			<stop  offset="0" style="stop-color:#FFFFFF"/>
			<stop  offset="0.5" style="stop-color:#F8B12D"/>
			<stop  offset="1" style="stop-color:#C31F22"/>
		</radialGradient>
		<path class="st11" d="M228.8,92c-5.4-10.6-10.7-21.2-10.8-28.2c-0.8,8.4,5.3,22.9,10.1,36C228.6,97.3,228.8,94.7,228.8,92
			L228.8,92z"/>
		
			<linearGradient id="SVGID_7_" gradientUnits="userSpaceOnUse" x1="292.8943" y1="113.2982" x2="295.1271" y2="120.8341" gradientTransform="matrix(-4.445259e-02 0.999 -0.999 -4.445259e-02 356.8465 -225.2885)">
			<stop  offset="0" style="stop-color:#FFFFFF"/>
			<stop  offset="1" style="stop-color:#FFFFFF;stop-opacity:0"/>
		</linearGradient>
		<path class="st12" d="M219,63.8c0.1,6.9,5.7,17.9,8.9,24.2c-0.2-9.4-1.7-19-2.7-28.3c-0.7-6.7-1.3-13.8-1.1-20.8
			C221.9,47.1,220.2,55.4,219,63.8L219,63.8z"/>
	</g>
	<g>
		
			<radialGradient id="SVGID_8_" cx="-80.4933" cy="-30.9967" r="128.1161" gradientTransform="matrix(0.999 4.445259e-02 -4.445259e-02 0.999 176.0006 43.3614)" gradientUnits="userSpaceOnUse">
			<stop  offset="0" style="stop-color:#FFFFFF"/>
			<stop  offset="0.5" style="stop-color:#D6428F"/>
			<stop  offset="1" style="stop-color:#68378C"/>
		</radialGradient>
		<path class="st13" d="M209.3-12.1c-19.4-3.2-49.1,6.3-71.6,2.1C153-5.4,164.4-3.2,173.2-2C181.6-1.2,196.1-7.3,209.3-12.1
			L209.3-12.1z"/>
		
			<radialGradient id="SVGID_9_" cx="33.3877" cy="55.5301" r="96.8543" gradientTransform="matrix(0.999 4.445259e-02 -4.445259e-02 0.999 176.0006 43.3614)" gradientUnits="userSpaceOnUse">
			<stop  offset="0" style="stop-color:#FFFFFF"/>
			<stop  offset="0.5" style="stop-color:#D6428F"/>
			<stop  offset="1" style="stop-color:#68378C"/>
		</radialGradient>
		<path class="st14" d="M214.2,70.9c0-16.1,4.7-31.2,9.9-44.2c2.8-14.3-10.1-24-30.9-26.2C225.5,6.7,187.3,53.4,214.2,70.9
			L214.2,70.9z"/>
		
			<radialGradient id="SVGID_10_" cx="31.5268" cy="-87.5664" r="96.7704" gradientTransform="matrix(0.999 4.445259e-02 -4.445259e-02 0.999 176.0006 43.3614)" gradientUnits="userSpaceOnUse">
			<stop  offset="0" style="stop-color:#FFFFFF"/>
			<stop  offset="0.5" style="stop-color:#D6428F"/>
			<stop  offset="1" style="stop-color:#68378C"/>
		</radialGradient>
		<path class="st15" d="M193.2,0.5c20.8,2.2,33.7,11.9,30.9,26.2c8.4-21,18.1-36.7,12.2-42.4c-8.8-8.5-47.1,15.3-63,13.7
			C182.1-0.7,188.3-0.4,193.2,0.5L193.2,0.5z"/>
		
			<radialGradient id="SVGID_11_" cx="31.5273" cy="-102.4542" r="97.2243" gradientTransform="matrix(0.999 4.445259e-02 -4.445259e-02 0.999 176.0006 43.3614)" gradientUnits="userSpaceOnUse">
			<stop  offset="0" style="stop-color:#FFFFFF"/>
			<stop  offset="0.5" style="stop-color:#D6428F"/>
			<stop  offset="1" style="stop-color:#68378C"/>
		</radialGradient>
		<path class="st16" d="M193.2,0.5c20.8,2.2,33.7,11.9,30.9,26.2c3.6-13.5,5.5-27.5-3.3-34.2c-3.2-2.4-7.1-3.8-11.6-4.6
			c-13.2,4.8-27.7,11-36,10.1C182.1-0.7,188.3-0.4,193.2,0.5L193.2,0.5z"/>
		
			<radialGradient id="SVGID_12_" cx="15.8028" cy="-64.4923" r="80.6663" gradientTransform="matrix(0.999 4.445259e-02 -4.445259e-02 0.999 176.0006 43.3614)" gradientUnits="userSpaceOnUse">
			<stop  offset="0" style="stop-color:#FFFFFF"/>
			<stop  offset="0.5" style="stop-color:#D6428F"/>
			<stop  offset="1" style="stop-color:#68378C"/>
		</radialGradient>
		<path class="st17" d="M236.3-15.7C228.1-23.6,194.6-3.7,177-2c17.7-0.3,51.8-20,59.7-11.8c0.7,0.7,1.2,1.6,1.4,2.5
			C238-13.1,237.4-14.6,236.3-15.7L236.3-15.7z"/>
		
			<radialGradient id="SVGID_13_" cx="-49.6509" cy="-29.8805" r="73.9672" gradientTransform="matrix(0.999 4.445259e-02 -4.445259e-02 0.999 176.0006 43.3614)" gradientUnits="userSpaceOnUse">
			<stop  offset="0" style="stop-color:#FFFFFF"/>
			<stop  offset="0.5" style="stop-color:#D6428F"/>
			<stop  offset="1" style="stop-color:#68378C"/>
		</radialGradient>
		<path class="st18" d="M201.4-12.8C190.8-7.4,180.2-2.1,173.2-2c8.4,0.8,22.9-5.3,36-10.1C206.8-12.5,204.2-12.7,201.4-12.8
			L201.4-12.8z"/>
		
			<linearGradient id="SVGID_14_" gradientUnits="userSpaceOnUse" x1="-6.8148" y1="-57.7125" x2="-4.5819" y2="-50.1768" gradientTransform="matrix(0.999 4.445259e-02 -4.445259e-02 0.999 176.0006 43.3614)">
			<stop  offset="0" style="stop-color:#FFFFFF"/>
			<stop  offset="1" style="stop-color:#FFFFFF;stop-opacity:0"/>
		</linearGradient>
		<path class="st19" d="M173.3-2.9c6.9-0.1,17.9-5.7,24.2-8.9c-9.4,0.2-19,1.7-28.3,2.7c-6.7,0.7-13.8,1.3-20.8,1.1
			C156.6-5.9,164.9-4.1,173.3-2.9L173.3-2.9z"/>
	</g>
	<g>
		
			<radialGradient id="SVGID_15_" cx="114.9137" cy="-320.643" r="128.117" gradientTransform="matrix(4.445259e-02 -0.999 0.999 4.445259e-02 433.5115 248.1323)" gradientUnits="userSpaceOnUse">
			<stop  offset="0" style="stop-color:#FFFFFF"/>
			<stop  offset="0.5" style="stop-color:#39B1E6"/>
			<stop  offset="1" style="stop-color:#40368B"/>
		</radialGradient>
		<path class="st20" d="M97.4,6.8c-3.2,19.4,6.3,49.1,2.1,71.6c4.6-15.4,6.8-26.8,8.1-35.6C108.3,34.5,102.2,20,97.4,6.8L97.4,6.8z"
			/>
		
			<radialGradient id="SVGID_16_" cx="228.7955" cy="-234.1154" r="96.855" gradientTransform="matrix(4.445259e-02 -0.999 0.999 4.445259e-02 433.5115 248.1323)" gradientUnits="userSpaceOnUse">
			<stop  offset="0" style="stop-color:#FFFFFF"/>
			<stop  offset="0.5" style="stop-color:#39B1E6"/>
			<stop  offset="1" style="stop-color:#40368B"/>
		</radialGradient>
		<path class="st21" d="M180.4,1.8c-16.1,0-31.2-4.7-44.2-9.9c-14.3-2.8-24,10.1-26.2,30.9C116.1-9.4,162.8,28.7,180.4,1.8
			L180.4,1.8z"/>
		
			<radialGradient id="SVGID_17_" cx="226.9346" cy="-377.2127" r="96.7705" gradientTransform="matrix(4.445259e-02 -0.999 0.999 4.445259e-02 433.5115 248.1323)" gradientUnits="userSpaceOnUse">
			<stop  offset="0" style="stop-color:#FFFFFF"/>
			<stop  offset="0.5" style="stop-color:#39B1E6"/>
			<stop  offset="1" style="stop-color:#40368B"/>
		</radialGradient>
		<path class="st22" d="M110,22.8C112.2,2,121.9-10.9,136.2-8c-21-8.4-36.7-18.1-42.4-12.2c-8.5,8.8,15.3,47.1,13.7,63
			C108.7,33.9,109,27.7,110,22.8L110,22.8z"/>
		
			<radialGradient id="SVGID_18_" cx="226.9351" cy="-392.1006" r="97.2246" gradientTransform="matrix(4.445259e-02 -0.999 0.999 4.445259e-02 433.5115 248.1323)" gradientUnits="userSpaceOnUse">
			<stop  offset="0" style="stop-color:#FFFFFF"/>
			<stop  offset="0.5" style="stop-color:#39B1E6"/>
			<stop  offset="1" style="stop-color:#40368B"/>
		</radialGradient>
		<path class="st23" d="M110,22.8C112.2,2,121.9-10.9,136.2-8c-13.5-3.6-27.5-5.5-34.2,3.3c-2.4,3.2-3.8,7.1-4.6,11.6
			c4.8,13.2,11,27.7,10.1,36C108.7,33.9,109,27.7,110,22.8L110,22.8z"/>
		
			<radialGradient id="SVGID_19_" cx="211.2106" cy="-354.1385" r="80.6663" gradientTransform="matrix(4.445259e-02 -0.999 0.999 4.445259e-02 433.5115 248.1323)" gradientUnits="userSpaceOnUse">
			<stop  offset="0" style="stop-color:#FFFFFF"/>
			<stop  offset="0.5" style="stop-color:#39B1E6"/>
			<stop  offset="1" style="stop-color:#40368B"/>
		</radialGradient>
		<path class="st24" d="M93.8-20.2c-7.9,8.2,12.1,41.7,13.7,59.3c-0.3-17.7-20-51.8-11.8-59.7c0.7-0.7,1.6-1.2,2.5-1.4
			C96.4-21.9,94.9-21.3,93.8-20.2L93.8-20.2z"/>
		
			<radialGradient id="SVGID_20_" cx="145.7569" cy="-319.5268" r="73.9672" gradientTransform="matrix(4.445259e-02 -0.999 0.999 4.445259e-02 433.5115 248.1323)" gradientUnits="userSpaceOnUse">
			<stop  offset="0" style="stop-color:#FFFFFF"/>
			<stop  offset="0.5" style="stop-color:#39B1E6"/>
			<stop  offset="1" style="stop-color:#40368B"/>
		</radialGradient>
		<path class="st25" d="M96.7,14.6c5.4,10.6,10.7,21.2,10.8,28.2c0.8-8.4-5.3-22.9-10.1-36C97,9.2,96.7,11.9,96.7,14.6L96.7,14.6z"
			/>
		
			<linearGradient id="SVGID_21_" gradientUnits="userSpaceOnUse" x1="188.5928" y1="-347.3589" x2="190.8256" y2="-339.823" gradientTransform="matrix(4.445259e-02 -0.999 0.999 4.445259e-02 433.5115 248.1323)">
			<stop  offset="0" style="stop-color:#FFFFFF"/>
			<stop  offset="1" style="stop-color:#FFFFFF;stop-opacity:0"/>
		</linearGradient>
		<path class="st26" d="M106.5,42.8c-0.1-6.9-5.7-17.9-8.9-24.2c0.2,9.4,1.7,19,2.7,28.3c0.7,6.7,1.3,13.8,1.1,20.8
			C103.6,59.5,105.3,51.2,106.5,42.8L106.5,42.8z"/>
	</g>
	<g>
		
			<radialGradient id="SVGID_22_" cx="382.2612" cy="-95.7121" r="128.1164" gradientTransform="matrix(-0.999 -4.445259e-02 4.445259e-02 -0.999 614.6954 19.1226)" gradientUnits="userSpaceOnUse">
			<stop  offset="0" style="stop-color:#FFFFFF"/>
			<stop  offset="0.28" style="stop-color:#E7E003"/>
			<stop  offset="0.8" style="stop-color:#339138"/>
		</radialGradient>
		<path class="st27" d="M116.3,118.7c19.4,3.2,49.1-6.3,71.6-2.1c-15.4-4.6-26.8-6.8-35.6-8.1C144,107.7,129.4,113.9,116.3,118.7
			L116.3,118.7z"/>
		
			<radialGradient id="SVGID_23_" cx="496.1422" cy="-9.185" r="96.8563" gradientTransform="matrix(-0.999 -4.445259e-02 4.445259e-02 -0.999 614.6954 19.1226)" gradientUnits="userSpaceOnUse">
			<stop  offset="0" style="stop-color:#FFFFFF"/>
			<stop  offset="0.28" style="stop-color:#E7E003"/>
			<stop  offset="0.8" style="stop-color:#339138"/>
		</radialGradient>
		<path class="st28" d="M111.3,35.6c0,16.1-4.7,31.2-9.9,44.2c-2.8,14.3,10.1,24,30.9,26.2C100.1,99.9,138.2,53.2,111.3,35.6
			L111.3,35.6z"/>
		
			<radialGradient id="SVGID_24_" cx="494.2813" cy="-152.2838" r="96.7704" gradientTransform="matrix(-0.999 -4.445259e-02 4.445259e-02 -0.999 614.6954 19.1226)" gradientUnits="userSpaceOnUse">
			<stop  offset="0" style="stop-color:#FFFFFF"/>
			<stop  offset="0.28" style="stop-color:#E7E003"/>
			<stop  offset="0.8" style="stop-color:#339138"/>
		</radialGradient>
		<path class="st29" d="M132.3,106.1c-20.8-2.2-33.7-11.9-30.9-26.2c-8.4,21-18.1,36.7-12.2,42.4c8.8,8.5,47.1-15.3,63-13.7
			C143.4,107.3,137.2,107,132.3,106.1L132.3,106.1z"/>
		
			<radialGradient id="SVGID_25_" cx="494.2818" cy="-167.1719" r="97.2245" gradientTransform="matrix(-0.999 -4.445259e-02 4.445259e-02 -0.999 614.6954 19.1226)" gradientUnits="userSpaceOnUse">
			<stop  offset="0" style="stop-color:#FFFFFF"/>
			<stop  offset="0.28" style="stop-color:#E7E003"/>
			<stop  offset="0.8" style="stop-color:#339138"/>
		</radialGradient>
		<path class="st30" d="M132.3,106.1c-20.8-2.2-33.7-11.9-30.9-26.2c-3.6,13.5-5.5,27.5,3.3,34.2c3.2,2.4,7.1,3.8,11.6,4.6
			c13.2-4.8,27.7-11,36-10.1C143.4,107.3,137.2,107,132.3,106.1L132.3,106.1z"/>
		
			<radialGradient id="SVGID_26_" cx="478.5574" cy="-129.2098" r="80.6662" gradientTransform="matrix(-0.999 -4.445259e-02 4.445259e-02 -0.999 614.6954 19.1226)" gradientUnits="userSpaceOnUse">
			<stop  offset="0" style="stop-color:#FFFFFF"/>
			<stop  offset="0.28" style="stop-color:#E7E003"/>
			<stop  offset="0.8" style="stop-color:#339138"/>
		</radialGradient>
		<path class="st31" d="M89.3,122.3c8.2,7.9,41.7-12.1,59.3-13.7c-17.7,0.3-51.8,20-59.7,11.8c-0.7-0.7-1.2-1.6-1.4-2.5
			C87.6,119.7,88.1,121.2,89.3,122.3L89.3,122.3z"/>
		
			<radialGradient id="SVGID_27_" cx="413.1035" cy="-94.5957" r="73.9676" gradientTransform="matrix(-0.999 -4.445259e-02 4.445259e-02 -0.999 614.6954 19.1226)" gradientUnits="userSpaceOnUse">
			<stop  offset="0" style="stop-color:#FFFFFF"/>
			<stop  offset="0.28" style="stop-color:#E7E003"/>
			<stop  offset="0.8" style="stop-color:#339138"/>
		</radialGradient>
		<path class="st32" d="M124.1,119.3c10.6-5.4,21.2-10.7,28.2-10.8c-8.4-0.8-22.9,5.3-36,10.1C118.7,119.1,121.3,119.3,124.1,119.3
			L124.1,119.3z"/>
		
			<linearGradient id="SVGID_28_" gradientUnits="userSpaceOnUse" x1="455.9393" y1="-122.4291" x2="458.1721" y2="-114.8935" gradientTransform="matrix(-0.999 -4.445259e-02 4.445259e-02 -0.999 614.6954 19.1226)">
			<stop  offset="0" style="stop-color:#FFFFFF"/>
			<stop  offset="1" style="stop-color:#FFFFFF;stop-opacity:0"/>
		</linearGradient>
		<path class="st33" d="M152.3,109.5c-6.9,0.1-17.9,5.7-24.2,8.9c9.4-0.2,19-1.7,28.3-2.7c6.7-0.7,13.8-1.3,20.8-1.1
			C169,112.4,160.7,110.7,152.3,109.5L152.3,109.5z"/>
	</g>
</g>
</svg>
