<svg xmlns="http://www.w3.org/2000/svg" xmlns:xlink="http://www.w3.org/1999/xlink" width="208" height="255" viewBox="0 0 208 255">
  <defs>
    <clipPath id="clip-path">
      <rect id="Rectangle_6559" data-name="Rectangle 6559" width="208" height="255" transform="translate(1479)" fill="#fff" stroke="#707070" stroke-width="1"/>
    </clipPath>
  </defs>
  <g id="Hero_Shape" data-name="Hero Shape" transform="translate(-1479)" clip-path="url(#clip-path)">
    <g id="Group_9104" data-name="Group 9104">
      <g id="Oval" transform="translate(1523 -198)" fill="none" stroke="#face55" stroke-miterlimit="10" stroke-width="80">
        <circle cx="224.5" cy="224.5" r="224.5" stroke="none"/>
        <circle cx="224.5" cy="224.5" r="184.5" fill="none"/>
      </g>
      <g id="Polygon" transform="translate(1556 161)" fill="none" stroke-linejoin="round" stroke-miterlimit="10">
        <path d="M20.5,0,38.254,10.25v20.5L20.5,41,2.746,30.75V10.25Z" stroke="none"/>
        <path d="M 20.5 0 L 2.746479034423828 10.25 L 2.746479034423828 30.75 L 20.5 41 L 38.25352096557617 30.75 L 38.25352096557617 10.25 L 20.5 0 M 20.5 -5.999996185302734 C 21.5359001159668 -5.999996185302734 22.57180023193359 -5.732051849365234 23.5 -5.196159362792969 L 41.25352096557617 5.053840637207031 C 43.10992050170898 6.125640869140625 44.25352096557617 8.106399536132813 44.25352096557617 10.25 L 44.25352096557617 30.75 C 44.25352096557617 32.89360046386719 43.10992050170898 34.87435913085938 41.25352096557617 35.94615936279297 L 23.5 46.19615936279297 C 22.57180023193359 46.73204803466797 21.5359001159668 46.99999618530273 20.5 46.99999618530273 C 19.4640998840332 46.99999618530273 18.42819976806641 46.73204803466797 17.5 46.19615936279297 L -0.2535209655761719 35.94615936279297 C -2.109920501708984 34.87435913085938 -3.253520965576172 32.89360046386719 -3.253520965576172 30.75 L -3.253520965576172 10.25 C -3.253520965576172 8.106399536132813 -2.109920501708984 6.125640869140625 -0.2535209655761719 5.053840637207031 L 17.5 -5.196159362792969 C 18.42819976806641 -5.732051849365234 19.4640998840332 -5.999996185302734 20.5 -5.999996185302734 Z" stroke="none" fill="#37def5"/>
      </g>
    </g>
  </g>
</svg>
