<?xml version="1.0" encoding="utf-8"?>
<!-- Generator: Adobe Illustrator 25.2.3, SVG Export Plug-In . SVG Version: 6.00 Build 0)  -->
<svg version="1.1" id="Capa_1" xmlns="http://www.w3.org/2000/svg" xmlns:xlink="http://www.w3.org/1999/xlink" x="0px" y="0px"
	 viewBox="0 0 512 512" style="enable-background:new 0 0 512 512;" xml:space="preserve">
<style type="text/css">
	.st0{fill:#43B4E7;}
</style>
<g>
	<g>
		<path class="st0" d="M467,61H45C20.2,61,0,81.2,0,106v300c0,24.8,20.2,45,45,45h422c24.8,0,45-20.2,45-45V106
			C512,81.2,491.8,61,467,61z M482,406c0,8.3-6.7,15-15,15H45c-8.3,0-15-6.7-15-15V106c0-8.3,6.7-15,15-15h422c8.3,0,15,6.7,15,15
			V406z"/>
	</g>
</g>
<g>
	<g>
		<path class="st0" d="M150,241c-49.6,0-90,40.4-90,90v15c0,24.8,20.2,45,45,45h90c24.8,0,45-20.2,45-45v-15
			C240,281.4,199.6,241,150,241z M210,346c0,8.3-6.7,15-15,15h-90c-8.3,0-15-6.7-15-15v-15c0-33.1,26.9-60,60-60s60,26.9,60,60V346z
			"/>
	</g>
</g>
<g>
	<g>
		<path class="st0" d="M150,121c-33.1,0-60,26.9-60,60s26.9,60,60,60s60-26.9,60-60S183.1,121,150,121z M150,211
			c-16.5,0-30-13.5-30-30s13.5-30,30-30s30,13.5,30,30S166.5,211,150,211z"/>
	</g>
</g>
<g>
	<g>
		<path class="st0" d="M437,331H287c-8.3,0-15,6.7-15,15s6.7,15,15,15h150c8.3,0,15-6.7,15-15S445.3,331,437,331z"/>
	</g>
</g>
<g>
	<g>
		<path class="st0" d="M437,271H287c-8.3,0-15,6.7-15,15s6.7,15,15,15h150c8.3,0,15-6.7,15-15S445.3,271,437,271z"/>
	</g>
</g>
<g>
	<g>
		<path class="st0" d="M437,211H287c-8.3,0-15,6.7-15,15s6.7,15,15,15h150c8.3,0,15-6.7,15-15S445.3,211,437,211z"/>
	</g>
</g>
<g>
	<g>
		<path class="st0" d="M407,151h-90c-8.3,0-15,6.7-15,15s6.7,15,15,15h90c8.3,0,15-6.7,15-15S415.3,151,407,151z"/>
	</g>
</g>
</svg>
